# AST/ASF file generated using VICON BodyLanguage
# -----------------------------------------------
:version 1.10
:name VICON
:units
  mass 1.0
  length 0.45
  angle deg
:documentation
   .ast/.asf automatically generated from VICON data using
   VICON BodyBuilder and BodyLanguage model FoxedUp or BRILLIANT.MOD
:root
   order TX TY TZ RX RY RZ
   axis XYZ
   position 0 0 0  
   orientation 0 0 0 
:bonedata
  begin
     id 1 
     name lhipjoint
     direction 0.537252 -0.787203 0.302774 
     length 2.29576 
     axis 0 0 0  XYZ
  end
  begin
     id 2 
     name lfemur
     direction 0.34202 -0.939693 0  
     length 7.31114  
     axis 0 0 20  XYZ
    dof rx ry rz
    limits (-160.0 20.0)
           (-70.0 70.0)
           (-60.0 70.0)
  end
  begin
     id 3 
     name ltibia
     direction 0.34202 -0.939693 0   
     length 8.36008   
     axis 0 0 20   XYZ
    dof rx
    limits (-10.0 170.0)
  end
  begin
     id 4 
     name lfoot
     direction 0.0969116 -0.266263 0.959016   
     length 2.16704   
     axis -90 7.62852e-016 20   XYZ
    dof rx rz
    limits (-45.0 90.0)
           (-70.0 20.0)
  end
  begin
     id 5 
     name ltoes
     direction 1.53563e-011 -4.21779e-011 1   
     length 1.08338   
     axis -90 7.62852e-016 20   XYZ
    dof rx
    limits (-90.0 20.0)
  end
  begin
     id 6 
     name rhipjoint
     direction -0.588228 -0.754791 0.290308   
     length 2.39434  
     axis 0 0 0  XYZ 
  end
  begin
     id 7 
     name rfemur
     direction -0.34202 -0.939693 0   
     length 7.45207   
     axis 0 0 -20   XYZ
    dof rx ry rz
    limits (-160.0 20.0)
           (-70.0 70.0)
           (-70.0 60.0)
  end
  begin
     id 8 
     name rtibia
     direction -0.34202 -0.939693 0   
     length 8.03565   
     axis 0 0 -20   XYZ
    dof rx
    limits (-10.0 170.0)
 end
 begin
     id 9 
     name rfoot
     direction -0.107009 -0.294004 0.949795   
     length 2.11509  
     axis -90 -7.62852e-016 -20   XYZ
    dof rx rz
    limits (-45.0 90.0)
           (-20.0 70.0)
  end
  begin
     id 10 
     name rtoes
     direction -1.53533e-011 -4.22004e-011 1   
     length 1.05493   
     axis -90 -7.62852e-016 -20   XYZ
    dof rx
    limits (-90.0 20.0)
  end
  begin
     id 11 
     name lowerback
     direction -0.0115208 0.997969 -0.0626515   
     length 2.03153   
     axis 0 0 0   XYZ
    dof rx ry rz
    limits (-20.0 45.0)
           (-30.0 30.0)
           (-30.0 30.0)
  end
  begin
     id 12 
     name upperback
     direction -0.00423475 0.999974 -0.00583614   
     length 2.03619   
     axis 0 0 0   XYZ
    dof rx ry rz
    limits (-20.0 45.0)
           (-30.0 30.0)
           (-30.0 30.0)
  end
  begin
     id 13 
     name thorax
     direction 0.00289429 0.999728 0.0231573   
     length 2.03921   
     axis 0 0 0   XYZ
    dof rx ry rz
    limits (-20.0 45.0)
           (-30.0 30.0)
           (-30.0 30.0)
  end
  begin
     id 14 
     name lowerneck
     direction 0.0188995 0.987777 0.154721   
     length 1.78836   
     axis 0 0 0   XYZ
    dof rx ry rz
    limits (-20.0 45.0)
           (-30.0 30.0)
           (-30.0 30.0)
  end
  begin
     id 15 
     name upperneck
     direction -0.00612612 0.992995 -0.118   
     length 1.81789   
     axis 0 0 0   XYZ
    dof rx ry rz
    limits (-20.0 45.0)
           (-30.0 30.0)
           (-30.0 30.0)
  end
  begin
     id 16
     name head
     direction -0.00420226 0.998397 -0.0564482  
     length 1.82234  
     axis 0 0 0   XYZ
    dof rx ry rz
    limits (-20.0 45.0)
           (-30.0 30.0)
           (-30.0 30.0)
  end
  begin
     id 17 
     name lclavicle
     direction 0.916488 0.396539 0.0529676  
     length 3.51732  
     axis 0 0 0   XYZ
    dof ry rz
    limits (-20.0 10.0)
           (0.0 20.0)
  end
  begin
     id 18 
     name lhumerus
     direction 1 -4.4896e-011 8.36962e-028   
     length 5.45077   
     axis 180 -30 -90   XYZ
    dof rx ry rz
    limits (-60.0 90.0)
           (-90.0 90.0)
           (-90.0 90.0)
  end
  begin
     id 19
     name lradius
     direction 1 -4.48962e-011 3.01407e-027   
     length 3.05488   
     axis 180 -30 -90   XYZ
    dof rx
    limits (-10.0 170.0)
  end
  begin
     id 20
     name lwrist
     direction 1 -4.49002e-011 4.72961e-027   
     length 1.52744   
     axis -2.72261e-015 90 90   XYZ
    dof ry
    limits (-180.0 0.0)
 end
  begin
     id 21 
     name lhand
     direction 1 -4.4899e-011 9.45681e-027   
     length 0.638818   
     axis -6.0311e-015 90 90   XYZ
    dof rx rz
    limits (-90.0 90.0)
           (-45.0 45.0)
  end
  begin
     id 22 
     name lfingers
     direction 1 -4.48871e-011 1.88632e-026   
     length 0.515032   
     axis -1.20625e-014 90 90   XYZ
    dof rx
    limits (0.0 90.0)
  end
  begin
     id 23
     name lthumb
     direction 0.707107 -6.34964e-011 0.707107   
     length 0.739485   
     axis -90 45 6.32835e-014   XYZ
    dof rx rz
    limits (-45.0 45.0)
           (-45.0 45.0)
  end
  begin
     id 24 
     name rclavicle
     direction -0.949427 0.303202 0.0815894   
     length 3.76167  
     axis 0 0 0   XYZ 
    dof ry rz
    limits (-10.0 20.0)
           (-20.0 0.0)
  end
  begin
     id 25 
     name rhumerus
     direction -1 -4.48971e-011 -6.43969e-018  
     length 4.88702   
     axis 180 30 90   XYZ
    dof rx ry rz
    limits (-90.0 60.0)
           (-90.0 90.0)
           (-90.0 90.0)
  end
  begin
     id 26 
     name rradius
     direction -1 -4.48987e-011 5.46662e-027   
     length 3.22603   
     axis 180 30 90   XYZ
    dof rx
    limits (-10.0 170.0)
  end
  begin
     id 27 
     name rwrist
     direction -1 -4.48956e-011 4.72476e-027   
     length 1.61302   
     axis -2.72261e-015 -90 -90   XYZ
    dof ry
    limits (-180.0 0.0)
  end
  begin
     id 28
     name rhand
     direction -1 -4.4889e-011 9.43571e-027   
     length 0.716293   
     axis -6.0311e-015 -90 -90   XYZ
    dof rx rz
    limits (-90.0 90.0)
           (-45.0 45.0)
  end
  begin
     id 29
     name rfingers
     direction -1 -4.48887e-011 1.88701e-026   
     length 0.577494   
     axis -1.20625e-014 -90 -90   XYZ
    dof rx
    limits (0.0 90.0)
  end
  begin
     id 30
     name rthumb
     direction -0.707107 -6.34825e-011 0.707107   
     length 0.829169   
     axis -90 -45 -6.32835e-014   XYZ
    dof rx rz
    limits (-45.0 45.0)
           (-45.0 45.0)
  end
:hierarchy
  begin
    root lhipjoint rhipjoint lowerback
    lhipjoint lfemur
    lfemur ltibia
    ltibia lfoot
    lfoot ltoes
    rhipjoint rfemur
    rfemur rtibia
    rtibia rfoot
    rfoot rtoes
    lowerback upperback
    upperback thorax
    thorax lowerneck lclavicle rclavicle
    lowerneck upperneck
    upperneck head
    lclavicle lhumerus
    lhumerus lradius
    lradius lwrist
    lwrist lhand lthumb
    lhand lfingers
    rclavicle rhumerus
    rhumerus rradius
    rradius rwrist
    rwrist rhand rthumb
    rhand rfingers
  end

#!OML:ASF F:\VICON\USERDATA\INSTALL\rory3\rory3.ASF
:FULLY-SPECIFIED
:DEGREES
1023
root 0.927365 18.5384 0.824979 127.256 86.0616 113.651
lowerback -3.94288 1.33904 -0.607171
upperback 1.00312 1.84118 -0.690566
thorax 3.24576 0.912522 -0.246788
lowerneck -20.6109 -3.92937 2.1095
upperneck 22.3766 -7.43778 5.5489
head 10.7964 -2.39847 0.536009
rclavicle -4.96962e-016 -9.54166e-015
rhumerus -1.37878 30.6559 -79.207
rradius 81.6775
rwrist -28.6695
rhand -0.787594 1.48742
rfingers 7.12502
rthumb 24.8358 -26.9196
lclavicle -4.96962e-016 -9.54166e-015
lhumerus -38.7081 -20.5936 78.5909
lradius 82.5744
lwrist 4.18455
lhand -8.60057 34.2542
lfingers 7.12502
lthumb 17.3309 63.5015
rfemur -17.1673 -4.56506 15.1553
rtibia 13.9137
rfoot -10.0528 3.65652
rtoes -8.61928
lfemur -19.6345 7.63029 -20.7519
ltibia 17.1461
lfoot -10.5877 -1.31741
ltoes -30.2796
1024
root 0.907277 18.538 0.817677 127.032 85.8731 113.387
lowerback -3.55331 1.22945 -0.551531
upperback 1.05874 1.67831 -0.383301
thorax 3.07567 0.829573 0.01843
lowerneck -20.6556 -3.75676 2.15326
upperneck 22.0067 -7.06412 5.01866
head 10.6315 -2.31707 0.39518
rclavicle 8.64713e-015 1.31198e-014
rhumerus -2.71148 28.6598 -80.7476
rradius 82.9726
rwrist -31.1554
rhand -2.50759 0.791793
rfingers 7.12502
rthumb 23.1865 -27.8326
lclavicle 8.64713e-015 1.31198e-014
lhumerus -38.0577 -20.8431 77.4838
lradius 83.9709
lwrist 3.55655
lhand -8.65633 34.3905
lfingers 7.12502
lthumb 17.2772 63.6425
rfemur -17.3687 -4.55638 14.9364
rtibia 14.1003
rfoot -10.0824 3.52387
rtoes -8.74052
lfemur -19.7807 7.63468 -20.997
ltibia 17.1658
lfoot -10.5029 -1.42393
ltoes -30.0929
1025
root 0.892889 18.5353 0.808333 124.615 85.8036 110.868
lowerback -3.33272 1.16143 -0.467057
upperback 1.12963 1.5723 -0.0496287
thorax 3.01763 0.775108 0.303255
lowerneck -20.6011 -3.53034 2.21764
upperneck 21.5492 -6.59153 4.38994
head 10.4135 -2.20544 0.233673
rclavicle -6.16232e-015 0
rhumerus -3.76499 26.9858 -82.044
rradius 84.2036
rwrist -34.2148
rhand -4.66964 0.0735239
rfingers 7.12502
rthumb 21.1108 -28.7972
lclavicle -6.16232e-015 0
lhumerus -37.4309 -21.1228 76.3629
lradius 85.3634
lwrist 3.22614
lhand -9.89356 33.9854
lfingers 7.12502
lthumb 16.0861 63.3377
rfemur -17.6845 -4.38883 14.7217
rtibia 14.3267
rfoot -10.1492 3.45716
rtoes -8.90985
lfemur -19.9604 7.70924 -21.2226
ltibia 17.1968
lfoot -10.4488 -1.43128
ltoes -29.5698
1026
root 0.883557 18.5328 0.795886 121.296 85.7605 107.477
lowerback -3.15814 1.10918 -0.314271
upperback 1.20761 1.48722 0.248406
thorax 2.99624 0.732929 0.516006
lowerneck -20.5754 -3.27555 2.34727
upperneck 21.2162 -6.10171 3.72105
head 10.2482 -2.07578 0.0498
rclavicle 2.24627e-014 3.97569e-015
rhumerus -4.74251 25.4142 -83.2616
rradius 85.4064
rwrist -37.0839
rhand -6.81008 -0.235756
rfingers 7.12502
rthumb 19.0535 -29.3225
lclavicle 2.24627e-014 3.97569e-015
lhumerus -36.9314 -21.6024 75.105
lradius 86.8782
lwrist 3.20381
lhand -10.5483 33.95
lfingers 7.12502
lthumb 15.4555 63.3522
rfemur -17.9844 -4.33958 14.5166
rtibia 14.6343
rfoot -10.1766 3.60836
rtoes -8.74622
lfemur -20.0431 7.87255 -21.4666
ltibia 17.181
lfoot -10.4072 -1.40655
ltoes -29.4884
1027
root 0.869619 18.5295 0.783621 118.615 85.7677 104.768
lowerback -2.85493 1.06291 -0.0439112
upperback 1.27623 1.40714 0.550748
thorax 2.89591 0.696157 0.665008
lowerneck -20.4973 -3.02736 2.52766
upperneck 20.7769 -5.62099 2.99511
head 10.0375 -1.95552 -0.161652
rclavicle -1.5704e-014 1.59028e-015
rhumerus -5.64772 23.837 -84.4429
rradius 86.4777
rwrist -39.4822
rhand -8.68933 -0.298773
rfingers 7.12502
rthumb 17.2455 -29.5536
lclavicle -1.5704e-014 1.59028e-015
lhumerus -36.2831 -22.0163 73.7192
lradius 88.2048
lwrist 2.9636
lhand -10.7171 34.0024
lfingers 7.12502
lthumb 15.293 63.417
rfemur -18.2415 -4.31987 14.4022
rtibia 14.9101
rfoot -10.1897 3.77556
rtoes -8.7729
lfemur -20.1102 8.17976 -21.6464
ltibia 17.1853
lfoot -10.3567 -1.54508
ltoes -29.5428
1028
root 0.852896 18.5258 0.770029 114.988 85.7608 101.039
lowerback -2.6016 1.01984 0.242659
upperback 1.33492 1.3344 0.820318
thorax 2.81469 0.663814 0.773043
lowerneck -20.4975 -2.75825 2.7796
upperneck 20.439 -5.13603 2.22792
head 9.88114 -1.82441 -0.399735
rclavicle 1.19271e-015 4.21423e-014
rhumerus -6.35469 22.5049 -85.4618
rradius 87.2229
rwrist -41.9172
rhand -10.6938 -0.333329
rfingers 7.12502
rthumb 15.3154 -29.7462
lclavicle 1.19271e-015 4.21423e-014
lhumerus -35.5176 -22.2696 72.2211
lradius 89.2417
lwrist 2.57025
lhand -11.0341 33.3385
lfingers 7.12502
lthumb 14.9876 62.7762
rfemur -18.5859 -4.18264 14.241
rtibia 15.1514
rfoot -10.1716 3.87634
rtoes -8.78373
lfemur -20.2591 8.33004 -21.8309
ltibia 17.2099
lfoot -10.3171 -1.48566
ltoes -29.1666
1029
root 0.835842 18.5293 0.754022 110.839 85.5882 96.8574
lowerback -2.28183 0.956595 0.413795
upperback 1.42764 1.2428 1.04529
thorax 2.72984 0.620467 0.898592
lowerneck -20.4707 -2.45578 3.00562
upperneck 20.101 -4.60315 1.47625
head 9.72819 -1.66888 -0.620525
rclavicle -7.55382e-015 -1.82882e-014
rhumerus -7.03008 21.0252 -86.4941
rradius 88.0824
rwrist -44.0095
rhand -12.4089 -0.540738
rfingers 7.12502
rthumb 13.6629 -30.0723
lclavicle -7.55382e-015 -1.82882e-014
lhumerus -34.7231 -22.5153 70.6418
lradius 90.2114
lwrist 2.2081
lhand -11.4696 32.651
lfingers 7.12502
lthumb 14.5681 62.1194
rfemur -18.8513 -4.03854 13.8911
rtibia 15.4071
rfoot -10.2212 3.95477
rtoes -9.24757
lfemur -20.3641 8.44125 -22.1986
ltibia 17.2593
lfoot -10.3106 -1.39668
ltoes -29.3913
1030
root 0.815521 18.5314 0.73788 106.899 85.3609 92.8466
lowerback -1.9986 0.898142 0.575294
upperback 1.51202 1.15972 1.25872
thorax 2.65713 0.581385 1.01931
lowerneck -20.3538 -2.11436 3.22358
upperneck 19.712 -4.01061 0.716471
head 9.54888 -1.4864 -0.832497
rclavicle 5.96354e-015 -4.77083e-015
rhumerus -7.61414 19.6256 -87.4191
rradius 88.8635
rwrist -45.5748
rhand -14.1633 -0.478774
rfingers 7.12502
rthumb 11.9717 -30.1164
lclavicle 5.96354e-015 -4.77083e-015
lhumerus -33.9039 -22.83 69.0229
lradius 91.1433
lwrist 1.94252
lhand -11.6585 32.5791
lfingers 7.12502
lthumb 14.3861 62.0606
rfemur -19.2054 -3.83663 13.505
rtibia 15.7232
rfoot -10.251 3.93454
rtoes -9.37014
lfemur -20.5415 8.58814 -22.6127
ltibia 17.3453
lfoot -10.3239 -1.3457
ltoes -29.444
1031
root 0.789991 18.5296 0.720792 104.356 85.1399 90.2371
lowerback -1.63125 0.798773 0.818818
upperback 1.58232 1.02341 1.47747
thorax 2.52486 0.517567 1.0964
lowerneck -20.3282 -1.75028 3.55296
upperneck 19.4041 -3.39806 -0.188446
head 9.41762 -1.29736 -1.11246
rclavicle -3.97569e-015 -2.38542e-014
rhumerus -8.02281 18.4957 -88.1971
rradius 89.4597
rwrist -46.9643
rhand -16.0728 0.0317051
rfingers 7.12502
rthumb 10.1299 -29.7044
lclavicle -3.97569e-015 -2.38542e-014
lhumerus -33.0266 -23.1073 67.3553
lradius 92.0005
lwrist 1.69492
lhand -11.2486 33.0043
lfingers 7.12502
lthumb 14.781 62.4572
rfemur -19.5791 -3.68615 13.1561
rtibia 16.0989
rfoot -10.264 3.88744
rtoes -9.30947
lfemur -20.7493 8.76754 -23.0116
ltibia 17.4573
lfoot -10.2966 -1.35136
ltoes -29.7378
1032
root 0.76468 18.5269 0.703488 101.48 84.9009 87.2855
lowerback -1.25889 0.694519 0.993937
upperback 1.65627 0.884916 1.75074
thorax 2.3917 0.451269 1.269
lowerneck -20.3302 -1.40561 3.67044
upperneck 19.0826 -2.77925 -0.978891
head 9.30124 -1.10518 -1.31769
rclavicle -4.77083e-015 2.06736e-014
rhumerus -8.35326 17.5146 -88.8335
rradius 89.9364
rwrist -47.9612
rhand -18.2319 0.109919
rfingers 7.12502
rthumb 8.04648 -29.7169
lclavicle -4.77083e-015 2.06736e-014
lhumerus -32.1041 -23.2239 65.721
lradius 92.6931
lwrist 1.33768
lhand -11.2056 33.1638
lfingers 7.12502
lthumb 14.8225 62.6137
rfemur -20.047 -3.65928 12.8181
rtibia 16.5863
rfoot -10.366 3.98352
rtoes -9.64443
lfemur -20.9447 9.07672 -23.4401
ltibia 17.5318
lfoot -10.2599 -1.4778
ltoes -29.4783
1033
root 0.736971 18.522 0.684782 98.6656 84.6418 84.4132
lowerback -0.858632 0.615044 1.17916
upperback 1.76576 0.782626 2.0091
thorax 2.27973 0.403672 1.42305
lowerneck -20.3572 -1.08219 3.80634
upperneck 18.71 -2.20326 -1.75848
head 9.17763 -0.928213 -1.52755
rclavicle 1.55052e-014 6.67916e-014
rhumerus -8.53944 16.4841 -89.3439
rradius 90.2894
rwrist -48.7133
rhand -19.7469 2.08856
rfingers 7.12502
rthumb 6.58412 -27.7891
lclavicle 1.55052e-014 6.67916e-014
lhumerus -31.0029 -23.4011 63.9927
lradius 93.2505
lwrist 0.972694
lhand -11.7281 32.7455
lfingers 7.12502
lthumb 14.319 62.2317
rfemur -20.5743 -3.66292 12.4858
rtibia 17.1684
rfoot -10.4781 4.13708
rtoes -10.1507
lfemur -21.1393 9.31238 -23.8572
ltibia 17.5975
lfoot -10.1599 -1.5428
ltoes -29.0165
1034
root 0.706724 18.5139 0.661 97.305 84.3363 83.0485
lowerback -0.376965 0.477598 1.44159
upperback 1.87461 0.607788 2.22018
thorax 2.12422 0.321726 1.4837
lowerneck -20.3775 -0.727418 4.0559
upperneck 18.3975 -1.59263 -2.66537
head 9.07957 -0.737039 -1.79591
rclavicle -1.19271e-015 4.77083e-015
rhumerus -8.7632 15.4091 -89.9887
rradius 90.5361
rwrist -49.3047
rhand -21.2579 4.01559
rfingers 7.12502
rthumb 5.12533 -25.9024
lclavicle -1.19271e-015 4.77083e-015
lhumerus -29.8927 -23.5441 62.2309
lradius 93.6942
lwrist 0.698387
lhand -11.9604 32.0921
lfingers 7.12502
lthumb 14.0952 61.5941
rfemur -21.0337 -3.66946 12.0705
rtibia 17.7748
rfoot -10.5989 4.2189
rtoes -10.6109
lfemur -21.3328 9.40542 -24.3114
ltibia 17.7809
lfoot -10.0993 -1.60685
ltoes -28.625
1035
root 0.676353 18.5071 0.637027 94.9534 83.9711 80.6543
lowerback 0.0771883 0.359168 1.63383
upperback 1.9997 0.461504 2.37913
thorax 2.00014 0.253023 1.53317
lowerneck -20.5763 -0.321463 4.50195
upperneck 18.2045 -0.950873 -3.70763
head 9.06275 -0.52969 -2.14304
rclavicle 4.77083e-015 -4.77083e-015
rhumerus -8.89336 14.8254 -90.407
rradius 90.9355
rwrist -50.2952
rhand -22.608 3.0248
rfingers 7.12502
rthumb 3.82162 -26.9207
lclavicle 4.77083e-015 -4.77083e-015
lhumerus -28.8317 -23.6979 60.4171
lradius 94.1106
lwrist 0.616266
lhand -11.9775 31.6236
lfingers 7.12502
lthumb 14.0786 61.1267
rfemur -21.5804 -3.68831 11.6177
rtibia 18.4174
rfoot -10.7025 4.38019
rtoes -11.3001
lfemur -21.5853 9.55646 -24.8432
ltibia 18.0124
lfoot -10.1236 -1.55329
ltoes -28.9761
